<svg xmlns="http://www.w3.org/2000/svg" width="390" height="844" viewBox="0 0 390 844">
  <rect fill="#1a2332" width="390" height="844"/>
  <rect fill="#166534" x="20" y="20" width="350" height="100" rx="8"/>
  <rect fill="#2d3748" x="20" y="140" width="350" height="60" rx="8"/>
  <rect fill="#2d3748" x="20" y="220" width="350" height="60" rx="8"/>
  <rect fill="#2d3748" x="20" y="300" width="350" height="60" rx="8"/>
  <rect fill="#2d3748" x="20" y="380" width="350" height="60" rx="8"/>
  <g fill="#4a5568">
    <rect x="40" y="500" width="80" height="100" rx="6"/>
    <rect x="140" y="500" width="80" height="100" rx="6"/>
    <rect x="240" y="500" width="80" height="100" rx="6"/>
    <rect x="40" y="620" width="80" height="100" rx="6"/>
    <rect x="140" y="620" width="80" height="100" rx="6"/>
    <rect x="240" y="620" width="80" height="100" rx="6"/>
  </g>
  <text x="195" y="780" fill="#8b98a5" font-family="system-ui, sans-serif" font-size="14" text-anchor="middle">Replace with actual screenshot</text>
</svg>
